<?xml version="1.0" encoding="UTF-8"?>
<svg id="Layer_2" xmlns="http://www.w3.org/2000/svg" version="1.1" viewBox="0 0 358.8 282.9">
  <!-- Generator: Adobe Illustrator 29.3.1, SVG Export Plug-In . SVG Version: 2.1.0 Build 151)  -->
  <defs>
    <style>
      .st0 {
        fill: #231f20;
      }

      .st1 {
        fill: #fff;
      }

      .st2 {
        fill: #a73353;
      }
    </style>
  </defs>
  <g id="Layer_24">
    <g>
      <path class="st2" d="M182.1,149.3c-3.3-4.4-4.7-9.7-3.9-15.1l5.4-38.1c1.5-10.9,11.6-18.6,22.5-17.3l3.4-23.9c.4-3.2-1.8-6.1-4.9-6.4C102.9,37.5,26.3,116.7.2,213c-1.1,4.2,2.7,9.7,6.8,8.4,9.2-2.8,91.3-6.5,173,4.8,3,.4,5.8-3.3,6.2-6.4l8.8-62.7c-5.2-.8-9.8-3.6-12.9-7.8h0Z"/>
      <path class="st1" d="M208.8,85.6l-3.2-.4c-7.7-1.1-14.8,4.3-15.9,12l-5.4,38.1c-.5,3.7.4,7.4,2.7,10.4,2.3,3,5.6,5,9.3,5.5l3.2.4c3.7.5,7.4-.4,10.4-2.7,3-2.3,5-5.6,5.5-9.3l5.4-38.1c.5-3.7-.4-7.4-2.7-10.4s-5.6-5-9.3-5.5Z"/>
      <g>
        <path class="st1" d="M236,208.7c-5,1.5-9.5,2-16.5,2-16,0-21.4-7.8-18.6-27.3,2.9-20.1,8.9-26.4,25-26.4s10.9.6,15.5,1.8l-1.5,8.5c-4.9-.3-8.1-.4-14.4-.4s-10.6,2.6-12.6,17.4c-1.8,12.9-.4,16.5,7.1,16.5,7.1,0,11.1-.1,15.7-.7l.4,8.6h0Z"/>
        <path class="st1" d="M250.8,197.9c-.4,2.7.4,3.5,3.5,3.5h3.2l.5,7.9c-1.9,1-6.5,1.4-8.6,1.4-6.9,0-10.8-3.9-9.9-10.4l6.1-43.1h11l-5.8,40.8h0Z"/>
        <path class="st1" d="M261.7,209.8l5.2-37.1h11l-5.2,37.1h-11ZM276.8,156.3c2.3,0,3.4,1.3,3.2,3.5l-.5,4.1c-.3,2.1-1.4,3-3.6,3h-4.7c-2.3,0-3.3-1.2-3-3.5l.5-4c.2-2.1,1.3-3.1,3.5-3.1h4.7Z"/>
        <path class="st1" d="M313.5,208.3c-4.3,1.8-9.7,2.4-14.4,2.4-13.2,0-18.6-5.6-16.5-19.9,2-13.8,7.1-19.1,20.5-19.1s10.3.7,14.2,2.4l-1.5,6.8c-4.4,0-8.5-.1-11.2-.1-6.7,0-9.3,2-10.4,10.6-1.1,8.9.5,10.4,6.9,10.4s7.5,0,11.7-.7l.8,7.3h0Z"/>
        <path class="st1" d="M358.8,172.7c-2.1,7.9-6.7,13.2-12.2,17.1,1.4,1.4,2.3,3.1,3.1,4.7l6.8,15.3h-11.6l-6.5-15.3c-2.1,1-4.3,1.9-6.4,2.7l-1.8,12.6h-11.1l7.4-52.6h11.1l-3.1,22.6c-.5,3.2-1.4,6.1-2.7,9.2,7.1-3.7,14-9.6,15.6-16.2h11.4,0Z"/>
        <path class="st1" d="M66.7,280.7c-5,1.5-9.5,2-16.5,2-16,0-21.4-7.8-18.6-27.3,2.9-20.1,8.9-26.4,25-26.4s10.9.6,15.5,1.8l-1.5,8.5c-4.9-.3-8.1-.4-14.4-.4s-10.6,2.6-12.6,17.4c-1.8,12.9-.5,16.5,7.1,16.5,7.1,0,11.1-.1,15.7-.7l.4,8.6h0Z"/>
        <path class="st1" d="M97.8,254.1h-2.7c-3.4,0-6.8,1.6-12.4,4.6l-3.2,23.2h-11.1l5.2-37.1h8.7v7c5.6-5.3,11-8.1,15.8-8.1h2.3l-2.5,10.3Z"/>
        <path class="st1" d="M132.8,280.1c-4.7,2-11.3,2.6-16.3,2.6-14.5,0-19-6.8-17.4-20.2,1.8-14.9,7.9-18.8,21.5-18.8s17,4.9,15.9,12.8c-1.1,7.2-5.6,9.6-15.2,10.3l-11,.8c.2,5.3,2.8,6.2,7.4,6.2s9.8-.3,14.3-.8l.8,7.1h0ZM119.6,260.3c3.8-.3,5.6-1.1,6.1-4.8.3-3.5-1.2-3.7-5.9-3.6-5.7,0-7.6,1.7-8.9,9.2l8.7-.8Z"/>
        <path class="st1" d="M166.4,281.9v-6.7c-3.4,4.4-8.6,7.4-15.1,7.6-9.4.3-12.4-5.8-10.3-20.1,2.5-17.3,9.6-18.9,20.7-18.9s14.1,1.1,18.4,2.3l-5,35.9h-8.6ZM162.5,251.9c-6.9,0-8.9,1.1-10.3,10.8-1.4,9.5-.8,11.1,2.8,11,3.8,0,7.4-2.8,11.1-7l2.1-14.8h-5.7Z"/>
        <path class="st1" d="M199.4,270c-.4,2.8.1,3.5,3.2,3.5h5l.5,7.8c-2.9,1-8.1,1.4-10.4,1.4-7,0-10.6-4.1-9.6-10.9l2.9-19.6h-6.7l.9-7.1,6.8-.4,1.5-10.4h10.9l-1.4,10.4h10.2l-1.1,7.4h-10.3l-2.5,17.8h0Z"/>
        <path class="st1" d="M213.8,281.9l5.2-37.1h11.1l-5.2,37.1h-11.1ZM228.9,228.4c2.3,0,3.4,1.3,3.2,3.5l-.5,4.1c-.3,2.1-1.4,3-3.6,3h-4.7c-2.3,0-3.3-1.2-3-3.5l.5-4c.2-2.1,1.3-3.1,3.5-3.1h4.7Z"/>
        <path class="st1" d="M272.7,263.8c-2,14-7.6,19-21.1,19s-19.1-5.5-17.1-19.9c2-14,7.5-19.2,21.2-19.2s19,5.6,16.9,20.1h0ZM246.2,263.8c-1.2,8.6-.1,10.7,5.7,10.7s8-2.4,9.4-11.6c1.3-8.6,0-10.8-5.6-10.8s-8.2,2.1-9.6,11.7Z"/>
        <path class="st1" d="M291.3,252.2c5.6-5.5,11.4-8.4,16.9-8.4s10.1,3.6,9.1,10.5l-3.9,27.6h-11l3.4-24.3c.5-3.5,0-4.5-2.5-4.4-3.4,0-6.7,2-11.6,5.9l-3.2,22.9h-11.1l5.2-37.1h8.7v7.4h0Z"/>
        <path class="st1" d="M331.8,264.9c-6.1-2.4-8.3-6.1-7.6-11.6.8-6.8,5.6-9.6,16.6-9.6,5.6,0,12.9.7,17.1,1.5l-1,7.1c-4.8,0-9.5-.2-14.7-.2s-7.1.1-7.5,2c-.2,1.8,1.1,2.4,4.1,3.5l9.1,3.6c5.9,2.3,8.6,5.3,7.8,11.2-1.1,9-7.5,10.3-18.2,10.3s-9.9-.5-16.3-1.4l1-7.1c2.7.1,8,.1,11.8.1,8.7,0,10.6-.5,11-2.4.2-1.8-1.1-2.1-4.4-3.4l-9-3.7h0Z"/>
      </g>
      <g>
        <path class="st0" d="M55.5,187.2c-.3,2.5.3,3.8,3.4,3.8h17.8l-.2,8.8c-6.6.7-14.5.8-21.8.8s-11.7-4.4-10.6-12l5.5-40.1h11.5l-5.5,38.7h0Z"/>
        <path class="st0" d="M111.3,198.7c-4.7,2-11.3,2.6-16.3,2.6-14.5,0-19-6.8-17.4-20.2,1.8-14.9,7.9-18.8,21.5-18.8s17,4.9,15.9,12.8c-1.1,7.2-5.6,9.6-15.2,10.3l-11,.8c.2,5.3,2.8,6.2,7.4,6.2s9.8-.3,14.3-.8l.8,7.1h0ZM98.2,178.8c3.8-.3,5.6-1.1,6.1-4.8.3-3.5-1.2-3.7-5.9-3.6-5.7,0-7.6,1.7-8.9,9.2l8.7-.8Z"/>
        <path class="st0" d="M161.4,170.8h10.3l1.1-7.4h-10.2l1.4-10.4h-10.9l-1.5,10.4h-16.5l.5-4c.6-4,2.2-5,6-5h6.6l1.8-7.4c-3.3-.5-9.2-.8-12.2-.8-8.1,0-12,4.3-13,11.3l-.8,5.8-6.5.4-.9,7.1h6.4l-4.4,31.1c-.6,4.1-2.2,5-6.1,5h-4.8l-1.7,7.4c4.5.5,7.7.8,10.3.8,8.1,0,12-4.4,13-11.3l4.7-33h16.6l-2.9,19.6c-1,6.8,2.6,10.9,9.6,10.9s7.4-.4,10.4-1.4l-.5-7.8h-5c-3.1,0-3.6-.8-3.2-3.5l2.5-17.8h0Z"/>
      </g>
      <g>
        <g id="_Radial_Repeat_">
          <rect class="st1" x="176.5" y="-.9" width="11.2" height="39" rx="5.6" ry="5.6" transform="translate(7 71.9) rotate(-22.8)"/>
        </g>
        <g id="_Radial_Repeat_-2">
          <rect class="st1" x="196.8" y="12.9" width="39" height="11.2" rx="5.6" ry="5.6" transform="translate(117.3 211.7) rotate(-67.8)"/>
        </g>
        <g id="_Radial_Repeat_-3">
          <rect class="st1" x="221.1" y="36.9" width="39" height="11.2" rx="5.6" ry="5.6" transform="translate(2.3 96.3) rotate(-22.8)"/>
        </g>
        <g id="_Radial_Repeat_-4">
          <rect class="st1" x="235.1" y="57.2" width="11.2" height="39" rx="5.6" ry="5.6" transform="translate(78.5 270.5) rotate(-67.8)"/>
        </g>
      </g>
    </g>
  </g>
</svg>